<?xml version="1.0" encoding="UTF-8" standalone="no"?>
<!-- Created with Inkscape (http://www.inkscape.org/) -->

<svg
   width="210mm"
   height="297mm"
   viewBox="0 0 210 297"
   version="1.1"
   id="svg1"
   xml:space="preserve"
   inkscape:version="1.4.2 (f4327f4, 2025-05-13)"
   sodipodi:docname="EngineeringLogo.svg"
   xmlns:inkscape="http://www.inkscape.org/namespaces/inkscape"
   xmlns:sodipodi="http://sodipodi.sourceforge.net/DTD/sodipodi-0.dtd"
   xmlns="http://www.w3.org/2000/svg"
   xmlns:svg="http://www.w3.org/2000/svg"><sodipodi:namedview
     id="namedview1"
     pagecolor="#ffffff"
     bordercolor="#000000"
     borderopacity="0.25"
     inkscape:showpageshadow="2"
     inkscape:pageopacity="0.0"
     inkscape:pagecheckerboard="0"
     inkscape:deskcolor="#d1d1d1"
     inkscape:document-units="mm"
     inkscape:zoom="1.1149729"
     inkscape:cx="374.00013"
     inkscape:cy="384.31428"
     inkscape:window-width="1920"
     inkscape:window-height="1129"
     inkscape:window-x="-8"
     inkscape:window-y="-8"
     inkscape:window-maximized="1"
     inkscape:current-layer="layer1" /><defs
     id="defs1" /><g
     inkscape:label="Layer 1"
     inkscape:groupmode="layer"
     id="layer1"><path
       style="opacity:1;fill:#d40000;stroke:none;stroke-width:0.256;stroke-dasharray:0.256, 0.256"
       d="M 64.62669,178.50227 72.467771,131.208 97.315439,66.120496 109.7432,44.587853 l 22.98806,39.259726 14.45048,45.772921 9.15995,50.53541 -9.93915,-31.65591 -19.38051,-16.61187 -23.74322,10.65509 -32.468641,36.16017 z"
       id="path2"
       inkscape:export-filename="Logo.png"
       inkscape:export-xdpi="96"
       inkscape:export-ydpi="96" /><path
       style="fill:#000000;stroke:none"
       d="m 63.970281,187.32171 c 0,-1.9039 0.10389,-3.46163 0.23086,-3.46163 0.12697,0 0.31846,-2.41102 0.42555,-5.35781 0.10708,-2.9468 0.29216,-5.419 0.41129,-5.49379 0.11913,-0.0748 0.29484,-1.444 0.39047,-3.04271 0.0956,-1.5987 0.28291,-2.94642 0.41618,-2.99493 0.13328,-0.0485 0.24232,-0.85218 0.24232,-1.78593 0,-0.93376 0.10375,-1.69775 0.23054,-1.69775 0.1268,0 0.31543,-1.30968 0.41918,-2.91041 0.10375,-1.60073 0.28502,-2.91042 0.40283,-2.91042 0.1178,0 0.299,-1.07156 0.40266,-2.38125 0.10366,-1.30969 0.27953,-2.38125 0.39084,-2.38125 0.1113,0 0.28619,-1.07156 0.38864,-2.38125 0.10246,-1.30969 0.29641,-2.38125 0.43101,-2.38125 0.13459,0 0.24472,-0.53578 0.24472,-1.19063 0,-0.65484 0.11185,-1.19062 0.24856,-1.19062 0.13671,0 0.33069,-0.83344 0.43106,-1.85208 0.10038,-1.01865 0.27379,-1.85209 0.38536,-1.85209 0.11157,0 0.28717,-0.9525 0.39023,-2.11666 0.10305,-1.16417 0.28234,-2.11667 0.39843,-2.11667 0.11609,0 0.29398,-0.71438 0.39532,-1.5875 0.10133,-0.87313 0.28214,-1.5875 0.40179,-1.5875 0.11965,0 0.30042,-0.77391 0.40172,-1.71979 0.1013,-0.94589 0.28937,-1.71979 0.41793,-1.71979 0.12857,0 0.23376,-0.35719 0.23376,-0.79375 0,-0.43657 0.10738,-0.79375 0.23861,-0.79375 0.13123,0 0.32152,-0.71438 0.42285,-1.5875 0.10134,-0.87313 0.27504,-1.5875 0.386,-1.5875 0.11096,0 0.27472,-0.61611 0.36391,-1.36913 0.0892,-0.75302 0.2766,-1.43986 0.4165,-1.52632 0.13989,-0.0865 0.33697,-0.78004 0.43795,-1.54129 0.10098,-0.76125 0.27876,-1.3841 0.39507,-1.3841 0.1163,0 0.29327,-0.65484 0.39327,-1.45521 0.1,-0.80036 0.28716,-1.4552 0.41591,-1.4552 0.12876,0 0.2341,-0.1786 0.2341,-0.39688 0,-0.21828 0.10534,-0.39687 0.2341,-0.39687 0.12875,0 0.31591,-0.65485 0.41591,-1.45521 0.1,-0.80037 0.27879,-1.45521 0.39732,-1.45521 0.11853,0 0.29585,-0.53578 0.39405,-1.19063 0.0982,-0.65484 0.28174,-1.19062 0.40788,-1.19062 0.12613,0 0.31115,-0.65484 0.41115,-1.45521 0.1,-0.80036 0.28716,-1.45521 0.41591,-1.45521 0.12875,0 0.2341,-0.28773 0.2341,-0.63941 0,-0.35167 0.12674,-0.68165 0.28165,-0.73329 0.15491,-0.0516 0.34918,-0.59734 0.43171,-1.21267 0.0825,-0.61534 0.2402,-1.11879 0.35036,-1.11879 0.11017,0 0.27685,-0.40806 0.37042,-0.90679 0.0936,-0.49873 0.28757,-0.94594 0.43114,-0.99379 0.14357,-0.0479 0.33497,-0.71137 0.42535,-1.47447 0.0904,-0.7631 0.26141,-1.38745 0.38007,-1.38745 0.11865,0 0.29391,-0.41672 0.38946,-0.92605 0.0956,-0.50932 0.27954,-0.92604 0.40887,-0.92604 0.12932,0 0.23513,-0.23812 0.23513,-0.52916 0,-0.29105 0.11177,-0.52917 0.24838,-0.52917 0.1366,0 0.32871,-0.53578 0.42691,-1.19063 0.0982,-0.65484 0.27463,-1.19062 0.39207,-1.19062 0.11743,0 0.29197,-0.35719 0.38785,-0.79375 0.0959,-0.43656 0.27042,-0.79375 0.38786,-0.79375 0.11743,0 0.29386,-0.53578 0.39206,-1.19063 0.0982,-0.65484 0.27707,-1.19062 0.39747,-1.19062 0.12041,0 0.29711,-0.41672 0.39266,-0.92604 0.0956,-0.50933 0.28739,-0.92604 0.42632,-0.92604 0.13892,0 0.25259,-0.23813 0.25259,-0.52917 0,-0.29104 0.1086,-0.52917 0.24133,-0.52917 0.13273,0 0.32179,-0.47625 0.42013,-1.05833 0.0983,-0.58208 0.27794,-1.05833 0.39911,-1.05833 0.12117,0 0.29875,-0.35719 0.39464,-0.79375 0.0959,-0.43657 0.27347,-0.79375 0.39464,-0.79375 0.12117,0 0.30077,-0.47625 0.39911,-1.05834 0.0983,-0.58208 0.2874,-1.05833 0.42013,-1.05833 0.13273,0 0.24133,-0.17859 0.24133,-0.39688 0,-0.21828 0.11367,-0.39687 0.25259,-0.39687 0.13893,0 0.3358,-0.4435 0.43749,-0.98555 0.10169,-0.54205 0.34521,-1.14587 0.54115,-1.341816 0.19595,-0.195946 0.35627,-0.526354 0.35627,-0.734241 0,-0.207887 0.10384,-0.377976 0.23077,-0.377976 0.12692,0 0.30692,-0.47625 0.4,-1.058334 0.0931,-0.582083 0.27743,-1.058333 0.40967,-1.058333 0.13223,0 0.31888,-0.357188 0.41477,-0.79375 0.0959,-0.436563 0.28394,-0.79375 0.41789,-0.79375 0.13396,0 0.24356,-0.178594 0.24356,-0.396875 0,-0.218281 0.10961,-0.396875 0.24357,-0.396875 0.13395,0 0.32201,-0.357188 0.41789,-0.79375 0.0959,-0.436563 0.27448,-0.79375 0.39688,-0.79375 0.12239,0 0.30099,-0.357188 0.39687,-0.79375 0.0959,-0.436563 0.27069,-0.79375 0.38845,-0.79375 0.11777,0 0.29689,-0.441178 0.39804,-0.980395 0.10116,-0.539217 0.4041,-1.17135 0.6732,-1.404739 0.2691,-0.233389 0.56968,-0.744712 0.66795,-1.136272 0.0983,-0.39156 0.27538,-0.711928 0.39356,-0.711928 0.11819,0 0.29333,-0.357187 0.38922,-0.79375 0.0959,-0.436562 0.27854,-0.79375 0.40591,-0.79375 0.12736,0 0.30975,-0.416718 0.4053,-0.926041 0.0956,-0.509323 0.27953,-0.926042 0.40886,-0.926042 0.12933,0 0.23514,-0.18233 0.23514,-0.405179 0,-0.222848 0.17859,-0.473712 0.39687,-0.557474 0.21828,-0.08376 0.39688,-0.318151 0.39688,-0.520863 0,-0.202712 0.113669,-0.368567 0.252589,-0.368567 0.13893,0 0.32923,-0.408472 0.42288,-0.907714 0.0937,-0.499243 0.33718,-0.971757 0.54116,-1.05003 0.20398,-0.07827 0.37087,-0.324646 0.37087,-0.547494 0,-0.222848 0.11367,-0.405179 0.25259,-0.405179 0.13893,0 0.33077,-0.416719 0.42632,-0.926042 0.0956,-0.509323 0.27954,-0.926041 0.40887,-0.926041 0.12932,0 0.23513,-0.182331 0.23513,-0.405179 0,-0.222849 0.1786,-0.473712 0.39688,-0.557474 0.21828,-0.08376 0.39687,-0.318151 0.39687,-0.520863 0,-0.202712 0.10616,-0.368568 0.23591,-0.368568 0.12974,0 0.3106,-0.297656 0.40191,-0.661458 0.0913,-0.363802 0.27335,-0.661458 0.40454,-0.661458 0.13118,0 0.31697,-0.357188 0.41285,-0.79375 0.0959,-0.436563 0.28167,-0.79375 0.41286,-0.79375 0.13119,0 0.31323,-0.297657 0.40454,-0.661459 0.0913,-0.363802 0.27217,-0.661458 0.40191,-0.661458 0.12975,0 0.2359,-0.178594 0.2359,-0.396875 0,-0.218281 0.1168,-0.396875 0.25954,-0.396875 0.14275,0 0.33209,-0.289041 0.42076,-0.642314 0.0887,-0.353272 0.32906,-0.706723 0.5342,-0.785446 0.20515,-0.07872 0.373,-0.325463 0.373,-0.548311 0,-0.222848 0.11906,-0.405179 0.26458,-0.405179 0.14553,0 0.26459,-0.211664 0.26459,-0.470365 0,-0.258701 0.23812,-0.674255 0.52916,-0.923453 0.29105,-0.249197 0.52917,-0.620107 0.52917,-0.824243 0,-1.060309 1.4535,-0.53378 1.92328,0.696707 0.0972,0.254661 0.29958,0.463021 0.44967,0.463021 0.15009,0 0.27288,0.211664 0.27288,0.470365 0,0.258701 0.23813,0.674255 0.52917,0.923452 0.29104,0.249198 0.52917,0.624823 0.52917,0.834722 0,0.209899 0.23812,0.457213 0.52916,0.549586 0.29254,0.09285 0.52917,0.400323 0.52917,0.687592 0,0.285802 0.16785,0.58405 0.373,0.662773 0.20515,0.07872 0.44554,0.432173 0.53421,0.785446 0.0887,0.353273 0.278,0.642314 0.42075,0.642314 0.14275,0 0.25954,0.18233 0.25954,0.405179 0,0.222848 0.17859,0.473711 0.39688,0.557474 0.21828,0.08376 0.39687,0.377682 0.39687,0.653154 0,0.275473 0.11906,0.500859 0.26458,0.500859 0.14553,0 0.26459,0.152134 0.26459,0.338074 0,0.185941 0.23812,0.541963 0.52916,0.791161 0.29105,0.249197 0.52917,0.632845 0.52917,0.852551 0,0.219705 0.10616,0.399464 0.2359,0.399464 0.12975,0 0.31061,0.297657 0.40192,0.661459 0.0913,0.363802 0.27335,0.661458 0.40453,0.661458 0.13119,0 0.31579,0.351791 0.41023,0.781757 0.0963,0.438623 0.39589,0.852913 0.68248,0.943871 0.31466,0.09987 0.51077,0.401984 0.51077,0.786845 0,0.343601 0.17272,0.797445 0.38382,1.008542 0.21109,0.211097 0.45996,0.687236 0.55304,1.058087 0.0931,0.370852 0.33708,0.738685 0.54223,0.817408 0.20515,0.07872 0.373,0.384994 0.373,0.680603 0,0.295609 0.1096,0.53747 0.24356,0.53747 0.13396,0 0.32083,0.351791 0.41526,0.781757 0.0944,0.429966 0.38688,0.850049 0.64986,0.933518 0.31063,0.09859 0.53704,0.519954 0.6462,1.202618 0.0924,0.577972 0.27623,1.050857 0.40847,1.050857 0.13224,0 0.31889,0.357188 0.41477,0.79375 0.0959,0.436563 0.27069,0.79375 0.38845,0.79375 0.11777,0 0.2923,0.416719 0.38785,0.926042 0.0956,0.509323 0.28739,0.926042 0.42632,0.926042 0.13892,0 0.25259,0.178594 0.25259,0.396875 0,0.218281 0.1096,0.396875 0.24356,0.396875 0.13396,0 0.32201,0.357187 0.4179,0.79375 0.0959,0.436562 0.28253,0.79375 0.41477,0.79375 0.13224,0 0.31659,0.47625 0.40967,1.058333 0.0931,0.582084 0.26362,1.058334 0.37898,1.058334 0.11536,0 0.28819,0.357187 0.38408,0.79375 0.0959,0.436562 0.27448,0.79375 0.39687,0.79375 0.1224,0 0.30099,0.357187 0.39688,0.79375 0.0959,0.436562 0.28394,0.79375 0.4179,0.79375 0.13396,0 0.24356,0.178593 0.24356,0.396873 0,0.21828 0.10384,0.39688 0.23077,0.39688 0.12692,0 0.30692,0.47625 0.4,1.05833 0.0931,0.58208 0.27167,1.05833 0.39687,1.05833 0.1252,0 0.3038,0.47625 0.39688,1.05834 0.0931,0.58208 0.27167,1.05833 0.39687,1.05833 0.1252,0 0.3038,0.47625 0.39688,1.05833 0.0931,0.58209 0.28689,1.05834 0.43069,1.05834 0.1438,0 0.26145,0.23812 0.26145,0.52916 0,0.29104 0.1086,0.52917 0.24133,0.52917 0.13273,0 0.32179,0.47625 0.42013,1.05833 0.0983,0.58209 0.286,1.05834 0.41701,1.05834 0.13101,0 0.31435,0.47625 0.40743,1.05833 0.0931,0.58208 0.25956,1.05833 0.36996,1.05833 0.1104,0 0.28107,0.53578 0.37927,1.19063 0.0982,0.65484 0.27914,1.19062 0.40209,1.19062 0.12295,0 0.30542,0.59532 0.40549,1.32292 0.10007,0.7276 0.28984,1.32292 0.42171,1.32292 0.13186,0 0.23975,0.17859 0.23975,0.39687 0,0.21828 0.10555,0.39688 0.23454,0.39688 0.129,0 0.31489,0.53578 0.41309,1.19062 0.0982,0.65484 0.27914,1.19063 0.40209,1.19063 0.12295,0 0.30542,0.59531 0.40549,1.32291 0.10007,0.72761 0.28254,1.32292 0.40549,1.32292 0.12295,0 0.30389,0.53578 0.40209,1.19062 0.0982,0.65485 0.27057,1.19063 0.38304,1.19063 0.11248,0 0.28485,0.53578 0.38305,1.19062 0.0982,0.65485 0.29031,1.19063 0.42692,1.19063 0.1366,0 0.24837,0.29766 0.24837,0.66146 0,0.3638 0.11049,0.66146 0.24554,0.66146 0.13505,0 0.32737,0.65484 0.42736,1.4552 0.1,0.80037 0.27547,1.45521 0.38994,1.45521 0.11446,0 0.29103,0.71438 0.39237,1.5875 0.10133,0.87313 0.28045,1.5875 0.39802,1.5875 0.11758,0 0.29566,0.59531 0.39573,1.32292 0.10007,0.7276 0.28983,1.32292 0.4217,1.32292 0.13187,0 0.23975,0.35718 0.23975,0.79375 0,0.43656 0.1105,0.79375 0.24555,0.79375 0.13505,0 0.32736,0.65484 0.42736,1.4552 0.1,0.80037 0.27547,1.45521 0.38994,1.45521 0.11446,0 0.29103,0.71438 0.39236,1.5875 0.10134,0.87313 0.27775,1.5875 0.39203,1.5875 0.11428,0 0.29066,0.77391 0.39196,1.71979 0.1013,0.94589 0.28207,1.7198 0.40172,1.7198 0.11965,0 0.30046,0.71437 0.40179,1.5875 0.10134,0.87312 0.29162,1.5875 0.42286,1.5875 0.13123,0 0.2386,0.41671 0.2386,0.92604 0,0.50932 0.11185,0.92604 0.24856,0.92604 0.13671,0 0.33069,0.83344 0.43107,1.85208 0.10037,1.01865 0.27079,1.85209 0.37871,1.85209 0.10791,0 0.27833,0.83343 0.3787,1.85208 0.10038,1.01865 0.27726,1.85208 0.39307,1.85208 0.11581,0 0.29032,0.85811 0.3878,1.90691 0.0975,1.0488 0.28056,1.97153 0.40686,2.05052 0.1263,0.079 0.31576,1.06635 0.42102,2.19414 0.10526,1.12778 0.29646,2.05052 0.42488,2.05052 0.12842,0 0.2335,0.47625 0.2335,1.05833 0,0.58208 0.10498,1.05833 0.23329,1.05833 0.12831,0 0.31759,1.01203 0.42062,2.24896 0.10304,1.23693 0.28308,2.24896 0.40008,2.24896 0.11701,0 0.29913,1.10133 0.4047,2.4474 0.10557,1.34606 0.29187,2.5109 0.41399,2.58852 0.12213,0.0776 0.30363,1.11941 0.40335,2.3151 0.0997,1.19569 0.28324,2.17398 0.40784,2.17398 0.1246,0 0.22655,0.65484 0.22655,1.45521 0,0.80036 0.10374,1.45521 0.23054,1.45521 0.1268,0 0.31543,1.30968 0.41917,2.91041 0.10375,1.60073 0.28567,2.91042 0.40428,2.91042 0.1186,0 0.30148,1.48828 0.4064,3.30729 0.10491,1.81901 0.29549,3.30729 0.42351,3.30729 0.12802,0 0.23276,0.41672 0.23276,0.92604 0,1.28354 -0.42766,1.16338 -0.60656,-0.17042 -0.0809,-0.60305 -0.26057,-1.1686 -0.39931,-1.25677 -0.13873,-0.0882 -0.33682,-0.66632 -0.44019,-1.28478 -0.10337,-0.61847 -0.29655,-1.12448 -0.42928,-1.12448 -0.13273,0 -0.24132,-0.29766 -0.24132,-0.66146 0,-0.3638 -0.10385,-0.66146 -0.23077,-0.66146 -0.12692,0 -0.30693,-0.47625 -0.4,-1.05833 -0.0931,-0.58209 -0.27168,-1.05834 -0.39688,-1.05834 -0.1252,0 -0.3038,-0.47625 -0.39687,-1.05833 -0.0931,-0.58208 -0.27364,-1.05833 -0.40125,-1.05833 -0.12761,0 -0.31019,-0.41672 -0.40574,-0.92605 -0.0956,-0.50932 -0.28739,-0.92604 -0.42632,-0.92604 -0.13892,0 -0.25259,-0.23812 -0.25259,-0.52916 0,-0.29105 -0.11367,-0.52917 -0.2526,-0.52917 -0.13892,0 -0.33077,-0.41672 -0.42632,-0.92604 -0.0956,-0.50933 -0.26628,-0.92604 -0.37941,-0.92604 -0.11314,0 -0.28387,-0.41672 -0.37942,-0.92605 -0.0956,-0.50932 -0.27794,-0.92604 -0.4053,-0.92604 -0.12737,0 -0.31002,-0.35718 -0.40591,-0.79375 -0.0959,-0.43656 -0.27448,-0.79375 -0.39687,-0.79375 -0.1224,0 -0.30099,-0.35718 -0.39688,-0.79375 -0.0959,-0.43656 -0.28394,-0.79375 -0.4179,-0.79375 -0.13396,0 -0.24356,-0.17859 -0.24356,-0.39687 0,-0.21828 -0.1096,-0.39688 -0.24356,-0.39688 -0.13396,0 -0.32201,-0.35718 -0.4179,-0.79375 -0.0959,-0.43656 -0.27069,-0.79375 -0.38845,-0.79375 -0.11776,0 -0.29229,-0.41672 -0.38784,-0.92604 -0.0956,-0.50932 -0.28739,-0.92604 -0.42632,-0.92604 -0.13893,0 -0.2526,-0.18233 -0.2526,-0.40518 0,-0.22285 -0.16689,-0.46922 -0.37086,-0.54749 -0.20398,-0.0783 -0.4475,-0.55079 -0.54116,-1.05003 -0.0937,-0.49925 -0.28395,-0.90772 -0.42288,-0.90772 -0.13893,0 -0.2526,-0.17859 -0.2526,-0.39687 0,-0.21828 -0.1096,-0.39688 -0.24356,-0.39688 -0.13395,0 -0.32201,-0.35718 -0.41789,-0.79375 -0.0959,-0.43656 -0.28167,-0.79375 -0.41286,-0.79375 -0.13119,0 -0.31106,-0.28904 -0.39973,-0.64231 -0.0887,-0.35327 -0.32906,-0.70672 -0.53421,-0.78545 -0.20515,-0.0787 -0.373,-0.29918 -0.373,-0.4899 0,-0.19072 -0.23374,-0.51524 -0.51943,-0.72115 -0.28568,-0.20592 -0.5928,-0.70845 -0.68248,-1.11675 -0.0897,-0.40829 -0.26463,-0.74235 -0.38878,-0.74235 -0.12415,0 -0.30721,-0.25672 -0.40679,-0.57048 -0.0996,-0.31376 -0.44825,-0.81978 -0.77481,-1.12448 -0.32656,-0.3047 -0.67591,-0.8158 -0.77634,-1.13578 -0.10043,-0.31998 -0.4028,-0.65167 -0.67193,-0.73709 -0.26913,-0.0854 -0.56296,-0.44869 -0.65296,-0.80728 -0.09,-0.35859 -0.28043,-0.65198 -0.42318,-0.65198 -0.14275,0 -0.25955,-0.16943 -0.25955,-0.37652 0,-0.20709 -0.35718,-0.73371 -0.79375,-1.17027 -0.43656,-0.43656 -0.79375,-0.90417 -0.79375,-1.03912 0,-0.13494 -0.35718,-0.5191 -0.79375,-0.85367 -0.43656,-0.33457 -0.79375,-0.82863 -0.79375,-1.09791 0,-0.26927 -0.16943,-0.48959 -0.37652,-0.48959 -0.20709,0 -0.72761,-0.35109 -1.15672,-0.7802 -0.42911,-0.42911 -1.09311,-0.85874 -1.47556,-0.95473 -0.38245,-0.096 -0.69536,-0.28068 -0.69536,-0.41042 0,-0.12975 -1.48828,-0.2359 -3.30729,-0.2359 -1.81901,0 -3.3073,0.10789 -3.3073,0.23975 0,0.13187 -0.59531,0.32164 -1.32291,0.42171 -0.72761,0.10007 -1.32292,0.28037 -1.32292,0.40068 0,0.1203 -0.35719,0.29718 -0.79375,0.39307 -0.43656,0.0959 -0.79375,0.27347 -0.79375,0.39464 0,0.12117 -0.47625,0.30077 -1.05833,0.39911 -0.58209,0.0983 -1.05834,0.2874 -1.05834,0.42013 0,0.13273 -0.16585,0.24133 -0.36856,0.24133 -0.20272,0 -0.4371,0.17859 -0.52087,0.39687 -0.0838,0.21828 -0.33462,0.39688 -0.55747,0.39688 -0.22285,0 -0.40518,0.11679 -0.40518,0.25954 0,0.14275 -0.29766,0.33425 -0.66146,0.42556 -0.3638,0.0913 -0.66146,0.25926 -0.66146,0.37323 0,0.11397 -0.29765,0.28192 -0.66145,0.37323 -0.36381,0.0913 -0.66146,0.28281 -0.66146,0.42556 0,0.14275 -0.18233,0.25954 -0.40518,0.25954 -0.22285,0 -0.47371,0.1786 -0.55748,0.39688 -0.0838,0.21828 -0.36494,0.39687 -0.62484,0.39687 -0.25991,0 -0.54109,0.1786 -0.62485,0.39688 -0.0838,0.21828 -0.33462,0.39687 -0.55747,0.39687 -0.22285,0 -0.40518,0.1786 -0.40518,0.39688 0,0.21828 -0.1786,0.39687 -0.39688,0.39687 -0.21828,0 -0.39687,0.1168 -0.39687,0.25955 0,0.14274 -0.29766,0.33424 -0.66146,0.42555 -0.3638,0.0913 -0.66146,0.33171 -0.66146,0.53421 0,0.20251 -0.15033,0.36819 -0.33408,0.36819 -0.18374,0 -0.5576,0.29766 -0.83081,0.66146 -0.2732,0.3638 -0.60414,0.66146 -0.73542,0.66146 -0.38229,0 -1.98936,1.47341 -2.99448,2.74543 -0.29104,0.36833 -0.68374,0.67519 -0.87267,0.68192 -0.18892,0.007 -1.165439,0.84567 -2.170039,1.86432 -1.0046,1.01864 -1.95135,1.85208 -2.10389,1.85208 -0.15255,0 -0.27736,0.1149 -0.27736,0.25534 0,0.33715 -5.22311,5.56549 -5.55992,5.56549 -0.1435,0 -0.26091,0.12641 -0.26091,0.28091 0,0.1545 -1.01203,1.27488 -2.24896,2.48973 -1.23693,1.21484 -2.24896,2.28665 -2.24896,2.38179 0,0.16256 -0.39301,0.61287 -2.20316,2.5244 -0.41138,0.43441 -0.84984,0.78984 -0.97436,0.78984 -0.12452,0 -0.31091,0.26789 -0.41419,0.59531 -0.10328,0.32742 -0.94474,1.33846 -1.86991,2.24675 -0.92517,0.90829 -1.68213,1.76234 -1.68213,1.89788 0,0.13554 -0.35719,0.60363 -0.79375,1.04019 -0.43656,0.43656 -0.79375,0.87306 -0.79375,0.96999 0,0.0969 -0.53578,0.69697 -1.19062,1.3334 -0.65485,0.63644 -1.19063,1.28079 -1.19063,1.4319 0,0.15111 -0.47625,0.73694 -1.05833,1.30183 -0.58209,0.56489 -1.05834,1.1097 -1.05834,1.21068 0,0.10099 -0.35718,0.5408 -0.79375,0.97736 -0.43656,0.43656 -0.79375,0.90934 -0.79375,1.05061 0,0.14128 -0.2811,0.51907 -0.62468,0.83955 -0.34358,0.32047 -0.70879,0.85057 -0.81158,1.17799 -0.10279,0.32742 -0.28055,0.59531 -0.39501,0.59531 -0.29679,0 -1.60831,1.25124 -1.60831,1.53438 0,0.13021 -0.23812,0.5113 -0.52917,0.84687 -0.29104,0.33557 -0.52916,0.77051 -0.52916,0.96653 0,0.19601 -0.10168,0.35639 -0.22595,0.35639 -0.38731,0 -1.56831,1.22427 -1.66571,1.72674 -0.051,0.2631 -0.24155,0.52792 -0.42345,0.58848 -0.25334,0.0844 -0.33073,-0.69986 -0.33073,-3.35151 z m 6.44366,-13.37087 c 0.38505,-0.35686 0.70009,-0.80717 0.70009,-1.0007 0,-0.19353 0.53483,-0.82429 1.1885,-1.4017 0.65368,-0.5774 1.18946,-1.14414 1.19063,-1.25942 0.002,-0.23408 0.32045,-0.63713 1.39119,-1.76285 0.40018,-0.42073 0.7276,-0.84908 0.7276,-0.95189 0,-0.10281 0.64318,-0.81488 1.42929,-1.58237 0.78611,-0.7675 1.50658,-1.63895 1.60104,-1.93656 0.0945,-0.29762 0.40377,-0.61476 0.68737,-0.70477 0.2836,-0.09 0.51563,-0.26897 0.51563,-0.39768 0,-0.12871 0.41672,-0.63873 0.92605,-1.13337 0.50932,-0.49465 0.92604,-0.98401 0.92604,-1.08746 0,-0.10345 1.01315,-1.22252 2.25146,-2.48681 1.2383,-1.2643 2.33962,-2.38923 2.44739,-2.49985 0.10777,-0.11062 0.70195,-0.67603 1.32042,-1.25648 0.61846,-0.58044 1.12448,-1.16432 1.12448,-1.29751 0,-0.32588 1.77671,-2.13967 2.09593,-2.13967 0.13926,0 1.79751,-1.54782 3.68501,-3.43959 1.8875,-1.89177 3.51122,-3.43958 3.60829,-3.43958 0.0971,0 0.53366,-0.35719 0.97022,-0.79375 0.43657,-0.43656 0.895629,-0.79375 1.020149,-0.79375 0.12452,0 0.30005,-0.23204 0.39006,-0.51563 0.09,-0.2836 0.41428,-0.59518 0.7206,-0.6924 0.30631,-0.0972 0.81989,-0.4605 1.14128,-0.80729 0.32139,-0.34678 0.71036,-0.63051 0.86438,-0.63051 0.15402,0 0.63723,-0.35719 1.07379,-0.79375 0.43656,-0.43657 0.86812,-0.79375 0.95903,-0.79375 0.0909,0 0.42748,-0.28111 0.74795,-0.62469 0.32048,-0.34358 0.85057,-0.70879 1.178,-0.81158 0.32742,-0.10279 0.59531,-0.29793 0.59531,-0.43365 0,-0.13571 0.18233,-0.24675 0.40518,-0.24675 0.22285,0 0.47371,-0.17859 0.55747,-0.39688 0.0838,-0.21828 0.31815,-0.39687 0.52086,-0.39687 0.20272,0 0.36857,-0.11679 0.36857,-0.25954 0,-0.14275 0.29766,-0.33425 0.66146,-0.42556 0.3638,-0.0913 0.66146,-0.25926 0.66146,-0.37323 0,-0.11397 0.29765,-0.28193 0.66146,-0.37324 0.3638,-0.0913 0.66145,-0.27335 0.66145,-0.40453 0,-0.13119 0.35719,-0.31697 0.79375,-0.41286 0.43657,-0.0959 0.79375,-0.27448 0.79375,-0.39687 0,-0.1224 0.35719,-0.30099 0.79375,-0.39688 0.43657,-0.0959 0.79375,-0.28394 0.79375,-0.4179 0,-0.13396 0.1786,-0.24356 0.39688,-0.24356 0.21828,0 0.39687,-0.10859 0.39687,-0.24132 0,-0.13273 0.47625,-0.32179 1.05834,-0.42014 0.58208,-0.0983 1.05833,-0.27388 1.05833,-0.39009 0,-0.1162 0.56555,-0.296 1.25677,-0.39955 0.69123,-0.10355 1.33798,-0.31937 1.43723,-0.47959 0.24991,-0.40343 8.10189,-0.42756 8.36167,-0.0257 0.10402,0.16091 0.63561,0.37466 1.18131,0.47501 0.5457,0.10034 0.99219,0.2832 0.99219,0.40636 0,0.12315 0.30791,0.30119 0.68424,0.39564 0.37634,0.0945 0.97706,0.46455 1.33495,0.82243 0.35788,0.35789 0.82388,0.6507 1.03554,0.6507 0.21167,0 0.38485,0.17286 0.38485,0.38414 0,0.21128 0.41672,0.78885 0.92604,1.2835 0.50933,0.49465 0.92604,1.09569 0.92604,1.33565 0,0.23996 0.10991,0.4363 0.24424,0.4363 0.38797,0 1.87243,1.58934 1.87243,2.00472 0,0.20709 0.1168,0.37653 0.25954,0.37653 0.14275,0 0.33209,0.28904 0.42076,0.64231 0.0887,0.35327 0.32906,0.70672 0.5342,0.78545 0.20515,0.0787 0.373,0.32546 0.373,0.54831 0,0.22566 0.22914,0.40518 0.51718,0.40518 0.37959,0 0.56248,0.24148 0.68746,0.90771 0.0937,0.49924 0.33718,0.97176 0.54116,1.05003 0.20398,0.0783 0.37087,0.32465 0.37087,0.54749 0,0.22285 0.11679,0.40518 0.25954,0.40518 0.14275,0 0.33318,0.29339 0.42318,0.65198 0.09,0.35859 0.38965,0.72371 0.66588,0.81138 0.27624,0.0877 0.57497,0.44913 0.66384,0.80324 0.0889,0.3541 0.25484,0.64382 0.36881,0.64382 0.11397,0 0.28192,0.29766 0.37323,0.66146 0.2303,0.91759 0.6851,0.82977 0.6851,-0.13229 0,-0.43657 -0.10698,-0.79375 -0.23773,-0.79375 -0.13075,0 -0.32143,-0.83344 -0.42373,-1.85209 -0.1023,-1.01864 -0.28058,-1.85208 -0.39619,-1.85208 -0.1156,0 -0.2945,-0.9525 -0.39756,-2.11667 -0.10305,-1.16416 -0.29403,-2.11666 -0.42441,-2.11666 -0.13037,0 -0.23705,-0.35719 -0.23705,-0.79375 0,-0.43657 -0.10519,-0.79375 -0.23376,-0.79375 -0.12856,0 -0.31954,-0.80368 -0.42438,-1.78594 -0.10485,-0.98227 -0.29673,-1.85213 -0.42639,-1.93304 -0.12967,-0.0809 -0.31284,-0.88457 -0.40706,-1.78593 -0.0942,-0.90137 -0.25673,-1.63884 -0.36116,-1.63884 -0.10444,0 -0.26034,-0.6827 -0.34646,-1.51712 -0.0861,-0.83441 -0.28137,-1.5587 -0.43389,-1.60954 -0.15252,-0.0508 -0.27731,-0.55877 -0.27731,-1.12873 0,-0.56995 -0.10535,-1.03628 -0.2341,-1.03628 -0.12875,0 -0.31591,-0.65484 -0.41591,-1.45521 -0.1,-0.80036 -0.2786,-1.45521 -0.39688,-1.45521 -0.11828,0 -0.29687,-0.65484 -0.39687,-1.45521 -0.1,-0.80036 -0.28062,-1.4552 -0.40138,-1.4552 -0.12077,0 -0.30248,-0.71438 -0.40382,-1.5875 -0.10134,-0.87313 -0.28305,-1.5875 -0.40382,-1.5875 -0.12076,0 -0.30138,-0.65485 -0.40138,-1.45521 -0.1,-0.80037 -0.28716,-1.45521 -0.41591,-1.45521 -0.12875,0 -0.2341,-0.29766 -0.2341,-0.66146 0,-0.3638 -0.10554,-0.66146 -0.23454,-0.66146 -0.129,0 -0.31489,-0.53578 -0.41309,-1.19062 -0.0982,-0.65485 -0.27372,-1.19063 -0.39006,-1.19063 -0.11633,0 -0.28449,-0.6161 -0.37367,-1.36912 -0.0892,-0.75302 -0.27269,-1.43763 -0.40779,-1.52136 -0.1351,-0.0837 -0.33036,-0.71777 -0.43391,-1.409 -0.10355,-0.69122 -0.28652,-1.25677 -0.4066,-1.25677 -0.12008,0 -0.29868,-0.53578 -0.39688,-1.19062 -0.0982,-0.65485 -0.28409,-1.19063 -0.41308,-1.19063 -0.129,0 -0.23455,-0.29765 -0.23455,-0.66146 0,-0.3638 -0.11176,-0.66145 -0.24837,-0.66145 -0.1366,0 -0.32871,-0.53579 -0.42691,-1.19063 -0.0982,-0.65484 -0.26888,-1.19062 -0.37927,-1.19062 -0.1104,0 -0.27689,-0.47625 -0.36996,-1.05834 -0.0931,-0.58208 -0.27338,-1.05833 -0.40065,-1.05833 -0.12728,0 -0.31176,-0.53578 -0.40996,-1.19063 -0.0982,-0.65484 -0.29032,-1.19062 -0.42692,-1.19062 -0.1366,0 -0.24837,-0.29766 -0.24837,-0.66146 0,-0.3638 -0.11766,-0.66146 -0.26146,-0.66146 -0.1438,0 -0.33761,-0.47625 -0.43069,-1.05833 -0.0931,-0.58208 -0.26261,-1.05833 -0.37674,-1.05833 -0.11414,0 -0.28798,-0.47625 -0.38632,-1.05834 -0.0983,-0.58208 -0.28201,-1.05833 -0.40814,-1.05833 -0.12614,0 -0.30752,-0.41672 -0.40307,-0.92604 -0.0956,-0.50933 -0.26432,-0.92604 -0.37505,-0.92604 -0.11072,0 -0.27747,-0.47625 -0.37055,-1.05834 -0.0931,-0.58208 -0.28689,-1.05833 -0.43069,-1.05833 -0.1438,0 -0.26146,-0.17859 -0.26146,-0.39688 0,-0.21828 -0.10384,-0.39687 -0.23077,-0.39687 -0.12692,0 -0.30692,-0.47625 -0.4,-1.05833 -0.0931,-0.58209 -0.28548,-1.05834 -0.42756,-1.05834 -0.14208,0 -0.33449,-0.47625 -0.42757,-1.05833 -0.0931,-0.582083 -0.26362,-1.058333 -0.37898,-1.058333 -0.11536,0 -0.28819,-0.357188 -0.38408,-0.79375 -0.0959,-0.436563 -0.28394,-0.79375 -0.41789,-0.79375 -0.13396,0 -0.24357,-0.178594 -0.24357,-0.396875 0,-0.218282 -0.11765,-0.396875 -0.26145,-0.396875 -0.1438,0 -0.33761,-0.47625 -0.43069,-1.058334 -0.0931,-0.582083 -0.26362,-1.058333 -0.37898,-1.058333 -0.11536,0 -0.2882,-0.357188 -0.38408,-0.79375 -0.0959,-0.436563 -0.27448,-0.79375 -0.39688,-0.79375 -0.12239,0 -0.30099,-0.357188 -0.39687,-0.79375 -0.0959,-0.436563 -0.27069,-0.79375 -0.38846,-0.79375 -0.11776,0 -0.29229,-0.416719 -0.38784,-0.926042 -0.0956,-0.509323 -0.28739,-0.926042 -0.42632,-0.926042 -0.13892,0 -0.25259,-0.178593 -0.25259,-0.396875 0,-0.218281 -0.1096,-0.396875 -0.24356,-0.396875 -0.13396,0 -0.32202,-0.357187 -0.4179,-0.79375 -0.0959,-0.436562 -0.28167,-0.79375 -0.41286,-0.79375 -0.13118,0 -0.31322,-0.297656 -0.40453,-0.661458 -0.0913,-0.363802 -0.26271,-0.661458 -0.3809,-0.661458 -0.11818,0 -0.29333,-0.357188 -0.38921,-0.79375 -0.0959,-0.436563 -0.27448,-0.79375 -0.39688,-0.79375 -0.12239,0 -0.30099,-0.357188 -0.39687,-0.79375 -0.0959,-0.436563 -0.28394,-0.79375 -0.4179,-0.79375 -0.13396,0 -0.24356,-0.178594 -0.24356,-0.396875 0,-0.218281 -0.11104,-0.396875 -0.24675,-0.396875 -0.13572,0 -0.33002,-0.262338 -0.43178,-0.582973 -0.10177,-0.320634 -0.34792,-0.745858 -0.547,-0.94494 -0.19908,-0.199083 -0.36197,-0.532057 -0.36197,-0.739944 0,-0.207887 -0.11906,-0.377977 -0.26458,-0.377977 -0.14552,0 -0.26459,-0.18233 -0.26459,-0.405178 0,-0.222849 -0.17859,-0.473712 -0.39687,-0.557475 -0.21828,-0.08376 -0.39688,-0.377681 -0.39688,-0.653154 0,-0.275473 -0.11906,-0.500859 -0.26458,-0.500859 -0.14552,0 -0.26458,-0.182331 -0.26458,-0.405179 0,-0.222849 -0.1786,-0.473712 -0.39688,-0.557474 -0.21828,-0.08376 -0.39687,-0.309646 -0.39687,-0.501964 0,-0.192318 -0.16289,-0.512555 -0.36197,-0.711637 -0.19908,-0.199082 -0.44523,-0.624306 -0.547,-0.944941 -0.10176,-0.320634 -0.2866,-0.582972 -0.41076,-0.582972 -0.12415,0 -0.30418,-0.357187 -0.40006,-0.79375 -0.11672,-0.531396 -0.33535,-0.79375 -0.66146,-0.79375 -0.32612,0 -0.54475,0.262354 -0.66146,0.79375 -0.0959,0.436563 -0.27592,0.79375 -0.40007,0.79375 -0.12415,0 -0.30899,0.262338 -0.41076,0.582972 -0.10176,0.320635 -0.34791,0.745859 -0.54699,0.944941 -0.19909,0.199082 -0.36197,0.532057 -0.36197,0.739944 0,0.207887 -0.10616,0.377976 -0.2359,0.377976 -0.12975,0 -0.31631,0.320368 -0.41459,0.711928 -0.0983,0.39156 -0.40087,0.90463 -0.67243,1.140156 -0.27156,0.235525 -0.57416,0.748595 -0.67243,1.140155 -0.0983,0.391561 -0.27538,0.711928 -0.39356,0.711928 -0.11819,0 -0.29333,0.357188 -0.38922,0.79375 -0.0959,0.436563 -0.28167,0.79375 -0.41285,0.79375 -0.13119,0 -0.31323,0.297656 -0.40454,0.661458 -0.0913,0.363803 -0.27217,0.661459 -0.40191,0.661459 -0.12975,0 -0.23591,0.165855 -0.23591,0.368567 0,0.202712 -0.17859,0.437101 -0.39687,0.520863 -0.21828,0.08376 -0.39688,0.394157 -0.39688,0.689766 0,0.295609 -0.1096,0.53747 -0.24356,0.53747 -0.13395,0 -0.32706,0.380209 -0.42913,0.844908 -0.10206,0.464699 -0.34965,1.008985 -0.55019,1.209524 -0.20054,0.200539 -0.36462,0.534705 -0.36462,0.742592 0,0.207887 -0.1096,0.377976 -0.24356,0.377976 -0.13395,0 -0.32201,0.357188 -0.41789,0.79375 -0.0959,0.436563 -0.28394,0.79375 -0.4179,0.79375 -0.13396,0 -0.243559,0.178594 -0.243559,0.396875 0,0.218282 -0.10581,0.396875 -0.23514,0.396875 -0.12933,0 -0.31331,0.416719 -0.40886,0.926042 -0.0956,0.509323 -0.27794,0.926042 -0.4053,0.926042 -0.12737,0 -0.31003,0.357187 -0.40591,0.79375 -0.0959,0.436562 -0.27448,0.79375 -0.39688,0.79375 -0.12239,0 -0.30099,0.357187 -0.39687,0.79375 -0.0959,0.436562 -0.27448,0.79375 -0.39688,0.79375 -0.12239,0 -0.30099,0.357187 -0.39687,0.79375 -0.0959,0.436562 -0.28394,0.79375 -0.4179,0.79375 -0.13396,0 -0.24356,0.178594 -0.24356,0.396875 0,0.218281 -0.10581,0.396875 -0.23514,0.396875 -0.12932,0 -0.31652,0.433828 -0.41599,0.964062 -0.0995,0.530234 -0.35085,1.134051 -0.55861,1.341816 -0.20777,0.207762 -0.37776,0.666902 -0.37776,1.020312 0,0.35341 -0.1096,0.64256 -0.24356,0.64256 -0.13396,0 -0.32201,0.35719 -0.4179,0.79375 -0.0959,0.43656 -0.28394,0.79375 -0.41789,0.79375 -0.13396,0 -0.24357,0.1871 -0.24357,0.41577 0,0.22868 -0.17859,0.59437 -0.39687,0.81265 -0.21828,0.21828 -0.39687,0.68603 -0.39687,1.03944 0,0.3534 -0.10582,0.64256 -0.23514,0.64256 -0.12933,0 -0.31332,0.41671 -0.40887,0.92604 -0.0956,0.50932 -0.27692,0.92604 -0.40306,0.92604 -0.12614,0 -0.3098,0.47625 -0.40814,1.05833 -0.0983,0.58209 -0.28201,1.05834 -0.40815,1.05834 -0.12613,0 -0.30751,0.41671 -0.40306,0.92604 -0.0956,0.50932 -0.27954,0.92604 -0.40886,0.92604 -0.12933,0 -0.23514,0.23812 -0.23514,0.52917 0,0.29104 -0.11766,0.52916 -0.26146,0.52916 -0.1438,0 -0.33761,0.47625 -0.43069,1.05834 -0.0931,0.58208 -0.25786,1.05833 -0.36618,1.05833 -0.10833,0 -0.27311,0.47625 -0.36619,1.05833 -0.0931,0.58209 -0.27959,1.05834 -0.41448,1.05834 -0.13488,0 -0.32559,0.53578 -0.42379,1.19062 -0.0982,0.65484 -0.28409,1.19063 -0.41309,1.19063 -0.12899,0 -0.23454,0.17859 -0.23454,0.39687 0,0.21828 -0.10384,0.39688 -0.23077,0.39688 -0.12692,0 -0.30692,0.47625 -0.4,1.05833 -0.0931,0.58208 -0.27337,1.05833 -0.40065,1.05833 -0.12727,0 -0.31176,0.53578 -0.40996,1.19063 -0.0982,0.65484 -0.27914,1.19062 -0.40209,1.19062 -0.12294,0 -0.30542,0.59532 -0.40549,1.32292 -0.10007,0.7276 -0.28254,1.32292 -0.40549,1.32292 -0.12295,0 -0.30389,0.53578 -0.40209,1.19062 -0.0982,0.65484 -0.28409,1.19063 -0.41308,1.19063 -0.129,0 -0.23454,0.29765 -0.23454,0.66145 0,0.36381 -0.10555,0.66146 -0.23455,0.66146 -0.12899,0 -0.31488,0.53578 -0.41308,1.19063 -0.0982,0.65484 -0.27914,1.19062 -0.40209,1.19062 -0.12295,0 -0.30542,0.59531 -0.40549,1.32292 -0.10007,0.7276 -0.28574,1.32292 -0.41259,1.32292 -0.12686,0 -0.30962,0.59531 -0.40614,1.32291 -0.0965,0.72761 -0.26804,1.32292 -0.38116,1.32292 -0.11311,0 -0.28754,0.59531 -0.38761,1.32292 -0.10007,0.7276 -0.28984,1.32291 -0.42171,1.32291 -0.13186,0 -0.23975,0.35719 -0.23975,0.79375 0,0.43657 -0.1105,0.79375 -0.24555,0.79375 -0.13505,0 -0.32736,0.65485 -0.42736,1.45521 -0.1,0.80037 -0.27344,1.45521 -0.38542,1.45521 -0.11199,0 -0.28895,0.68461 -0.39325,1.52135 -0.1043,0.83675 -0.29602,1.58755 -0.42605,1.66845 -0.13003,0.0809 -0.3135,0.88458 -0.40771,1.78594 -0.0942,0.90136 -0.2734,1.63884 -0.39819,1.63884 -0.12479,0 -0.22689,0.29766 -0.22689,0.66146 0,0.3638 -0.11185,0.66146 -0.24856,0.66146 -0.13671,0 -0.33069,0.83344 -0.43106,1.85208 -0.10038,1.01865 -0.27897,1.85209 -0.39688,1.85209 -0.1179,0 -0.2965,0.83343 -0.39687,1.85208 -0.10038,1.01865 -0.27897,1.85208 -0.39688,1.85208 -0.1179,0 -0.2965,0.83344 -0.39687,1.85209 -0.10038,1.01864 -0.27219,1.85208 -0.38181,1.85208 -0.10962,0 -0.28299,0.89297 -0.38527,1.98437 -0.10227,1.09141 -0.29485,1.98438 -0.42796,1.98438 -0.1331,0 -0.242,0.47625 -0.242,1.05833 0,0.58209 -0.10491,1.05834 -0.23312,1.05834 -0.12822,0 -0.31793,1.13109 -0.42157,2.51354 -0.10365,1.38245 -0.28106,2.51354 -0.39426,2.51354 -0.11319,0 -0.29021,1.19062 -0.39338,2.64583 -0.10317,1.45521 -0.28536,2.64584 -0.40486,2.64584 -0.1195,0 -0.30366,1.39898 -0.40923,3.10885 -0.10557,1.70987 -0.28654,3.16962 -0.40215,3.24389 -0.11561,0.0743 -0.29598,1.74114 -0.40082,3.70417 -0.1127,2.11003 -0.3105,3.6486 -0.48385,3.76351 -0.18725,0.12414 -0.13985,0.19585 0.13116,0.19844 0.23341,0.002 0.73943,-0.28792 1.12448,-0.64477 z m 53.352179,-52.7879 c 0,-0.14051 -0.59531,-0.33444 -1.32292,-0.43096 -0.7276,-0.0965 -1.32292,-0.26804 -1.32292,-0.38116 0,-0.11312 -0.59531,-0.28754 -1.32291,-0.38762 -0.72761,-0.10007 -1.32292,-0.28254 -1.32292,-0.40549 0,-0.12295 -0.53578,-0.30389 -1.19062,-0.40209 -0.65485,-0.0982 -1.19063,-0.28408 -1.19063,-0.41308 0,-0.129 -0.35719,-0.23454 -0.79375,-0.23454 -0.43656,0 -0.79375,-0.10789 -0.79375,-0.23976 0,-0.13187 -0.59531,-0.32163 -1.32292,-0.4217 -0.7276,-0.10007 -1.32291,-0.27815 -1.32291,-0.39573 0,-0.11757 -0.71438,-0.29669 -1.5875,-0.39802 -0.87313,-0.10134 -1.5875,-0.2781 -1.5875,-0.39281 0,-0.11471 -0.56555,-0.29329 -1.25677,-0.39684 -0.69123,-0.10355 -1.32528,-0.29881 -1.409,-0.43391 -0.0837,-0.1351 -0.76834,-0.31861 -1.52136,-0.40779 -0.75302,-0.0892 -1.36912,-0.26463 -1.36912,-0.38988 0,-0.12525 -0.23813,-0.22773 -0.52917,-0.22773 -0.29104,0 -0.52917,-0.10789 -0.52917,-0.23976 0,-0.13186 -0.59531,-0.32163 -1.32291,-0.4217 -0.72761,-0.10007 -1.322919,-0.28984 -1.322919,-0.4217 0,-0.13187 -0.23812,-0.23976 -0.52917,-0.23976 -0.41157,0 -0.52916,-0.17639 -0.52916,-0.79375 0,-0.43656 -0.10639,-0.79375 -0.23642,-0.79375 -0.13003,0 -0.32307,-1.96453 -0.42899,-4.36562 -0.10591,-2.4011 -0.27907,-4.36563 -0.38479,-4.36563 -0.10572,0 -0.27397,-1.63711 -0.37388,-3.63802 -0.0999,-2.00091 -0.29662,-3.67771 -0.43713,-3.72621 -0.45543,-0.15723 -0.31955,-4.01285 0.14142,-4.01285 0.21828,0 0.39687,-0.11679 0.39687,-0.25954 0,-0.14275 0.29339,-0.33318 0.65198,-0.42318 0.35859,-0.09 0.72248,-0.38579 0.80866,-0.65731 0.0948,-0.29886 0.509,-0.55976 1.04949,-0.66116 0.491039,-0.0921 0.956839,-0.33438 1.035109,-0.53836 0.0783,-0.20398 0.32465,-0.37087 0.5475,-0.37087 0.22285,0 0.40518,-0.11679 0.40518,-0.25954 0,-0.14275 0.29339,-0.33318 0.65197,-0.42318 0.35859,-0.09 0.71984,-0.37743 0.80278,-0.63874 0.0886,-0.27906 0.51866,-0.54413 1.04226,-0.64236 0.49032,-0.092 0.95877,-0.34259 1.04101,-0.55692 0.0822,-0.21432 0.33187,-0.38967 0.55472,-0.38967 0.22284,0 0.40517,-0.11104 0.40517,-0.24676 0,-0.13571 0.26234,-0.33001 0.58298,-0.43178 0.32063,-0.10177 0.74586,-0.34791 0.94494,-0.547 0.19908,-0.19908 0.53205,-0.36196 0.73994,-0.36196 0.20789,0 0.37798,-0.11907 0.37798,-0.26459 0,-0.14552 0.16585,-0.26458 0.36857,-0.26458 0.20271,0 0.4371,-0.17859 0.52086,-0.39688 0.0838,-0.21828 0.38142,-0.39687 0.66146,-0.39687 0.28004,0 0.57769,-0.17859 0.66145,-0.39688 0.19622,-0.51133 1.4624,-0.51682 1.65797,-0.007 0.0822,0.21433 0.55475,0.4657 1.05003,0.55862 0.49527,0.0929 0.90049,0.27474 0.90049,0.40407 0,0.12932 0.16586,0.23514 0.36857,0.23514 0.20271,0 0.4371,0.17859 0.52086,0.39687 0.0838,0.21828 0.33463,0.39688 0.55748,0.39688 0.22284,0 0.40517,0.11679 0.40517,0.25954 0,0.14275 0.29766,0.33425 0.66146,0.42556 0.3638,0.0913 0.66146,0.25926 0.66146,0.37323 0,0.11397 0.29766,0.28192 0.66146,0.37323 0.3638,0.0913 0.66146,0.28281 0.66146,0.42556 0,0.14275 0.18233,0.25954 0.40518,0.25954 0.22285,0 0.47371,0.1786 0.55747,0.39688 0.0838,0.21828 0.37768,0.39687 0.65316,0.39687 0.27547,0 0.50085,0.11907 0.50085,0.26459 0,0.14552 0.18233,0.26458 0.40518,0.26458 0.22285,0 0.47092,0.17132 0.55127,0.38071 0.0803,0.20939 0.49334,0.45697 0.91774,0.55019 0.42441,0.0932 0.77165,0.27106 0.77165,0.39521 0,0.12415 0.23812,0.30131 0.52916,0.39368 0.5717,0.18145 0.81901,2.77813 0.26459,2.77813 -0.16659,0 -0.26459,1.76389 -0.26459,4.7625 0,2.99861 -0.098,4.7625 -0.26458,4.7625 -0.1586,0 -0.26458,1.05112 -0.26458,2.62419 0,3.07388 -0.1068,3.46123 -0.95435,3.46123 -0.34823,0 -0.63315,0.10196 -0.63315,0.22659 0,0.12462 -0.85811,0.30634 -1.90691,0.40381 -1.04879,0.0975 -1.99183,0.31465 -2.09564,0.48261 -0.1038,0.16796 -0.91257,0.35774 -1.79726,0.42174 -0.88469,0.064 -1.60853,0.20571 -1.60853,0.31494 0,0.26858 -3.48877,0.5976 -4.0506,0.38201 -0.24602,-0.0944 -0.44731,-0.44383 -0.44731,-0.7765 0,-0.33266 -0.1786,-0.67337 -0.39688,-0.75713 -0.21828,-0.0838 -0.39687,-0.45369 -0.39687,-0.82206 0,-0.36837 -0.1096,-0.66976 -0.24356,-0.66976 -0.13396,0 -0.32201,-0.35719 -0.4179,-0.79375 -0.0959,-0.43657 -0.28394,-0.79376 -0.4179,-0.79376 -0.13396,0 -0.24356,-0.17009 -0.24356,-0.37797 0,-0.20789 -0.16032,-0.5383 -0.35626,-0.73424 -0.19595,-0.19595 -0.43821,-0.79306 -0.53836,-1.32691 -0.11843,-0.6313 -0.36388,-1.02833 -0.70207,-1.13567 -0.99378,-0.31541 -0.17942,-2.24604 0.94741,-2.24604 0.18045,0 0.39662,-0.17859 0.48038,-0.39688 0.27858,-0.72597 0.68969,-0.41016 0.86105,0.66146 0.0931,0.58209 0.27308,1.05834 0.4,1.05834 0.12692,0 0.23077,0.13735 0.23077,0.30522 0,0.40857 2.11112,2.34061 2.55756,2.34061 0.19407,0 0.35285,0.11906 0.35285,0.26458 0,0.14552 0.16868,0.26459 0.37483,0.26459 0.20616,0 0.4201,0.1358 0.47543,0.30179 0.1331,0.39933 3.99105,0.38783 4.12442,-0.0123 0.0531,-0.15922 0.26291,-0.2895 0.46629,-0.2895 0.20338,0 0.44233,-0.28904 0.531,-0.64231 0.0887,-0.35328 0.32906,-0.70673 0.5342,-0.78545 0.20515,-0.0787 0.373,-0.31554 0.373,-0.52626 0,-0.21072 0.13554,-0.42831 0.30119,-0.48353 0.43921,-0.1464 0.45945,-6.878 0.0211,-7.02411 -0.17727,-0.0591 -0.32231,-0.39891 -0.32231,-0.75515 0,-0.35624 -0.17859,-0.71625 -0.39687,-0.80001 -0.21829,-0.0838 -0.39688,-0.30899 -0.39688,-0.50051 0,-0.4744 -2.11287,-2.50559 -2.60636,-2.50559 -0.13609,0 -0.31597,-0.17859 -0.39974,-0.39687 -0.0838,-0.21828 -0.33462,-0.39688 -0.55747,-0.39688 -0.22285,0 -0.40518,-0.11906 -0.40518,-0.26458 0,-0.16035 -1.14653,-0.26458 -2.91042,-0.26458 -1.60072,0 -2.91041,0.10372 -2.91041,0.23049 0,0.12678 -0.59531,0.30947 -1.32292,0.40599 -0.7276,0.0965 -1.32291,0.29045 -1.32291,0.43096 0,0.14051 -0.16586,0.25547 -0.36857,0.25547 -0.20271,0 -0.4371,0.1786 -0.52086,0.39688 -0.0838,0.21828 -0.33463,0.39687 -0.55748,0.39687 -0.22285,0 -0.40518,0.11104 -0.40518,0.24676 0,0.13571 -0.23812,0.32233 -0.52916,0.4147 -0.29105,0.0924 -0.52917,0.33002 -0.52917,0.5281 0,0.19808 -0.16289,0.52303 -0.36197,0.72211 -0.19908,0.19909 -0.45325,0.65407 -0.56483,1.01109 -0.11157,0.35701 -0.31009,0.71828 -0.44115,0.80282 -0.13107,0.0845 -0.31202,0.62031 -0.40213,1.19062 -0.0901,0.57031 -0.29425,1.1219 -0.45365,1.22574 -0.35728,0.23277 -0.31672,4.70512 0.0448,4.94005 0.13779,0.0895 0.33262,0.60929 0.43296,1.15499 0.10035,0.54571 0.29612,0.99219 0.43504,0.99219 0.13893,0 0.2526,0.17976 0.2526,0.39946 0,0.21971 0.23812,0.60336 0.52916,0.85256 0.29105,0.24919 0.52917,0.54039 0.52917,0.6471 0,0.38027 3.11769,3.39255 3.51126,3.39255 0.22048,0 0.46941,0.17859 0.55317,0.39687 0.0838,0.21828 0.30834,0.39688 0.49907,0.39688 0.19072,0 0.5184,0.23812 0.72817,0.52916 0.20977,0.29104 0.53745,0.52917 0.72817,0.52917 0.19072,0 0.41081,0.16689 0.48908,0.37087 0.0783,0.20397 0.55079,0.44749 1.05003,0.54115 0.49924,0.0937 0.90771,0.2745 0.90771,0.40186 0,0.12737 0.35719,0.31003 0.79375,0.40591 0.43657,0.0959 0.79375,0.28253 0.79375,0.41477 0,0.13224 0.47625,0.31659 1.05834,0.40967 0.58208,0.0931 1.05833,0.27308 1.05833,0.4 0,0.12692 0.17859,0.23077 0.39688,0.23077 0.21828,0 0.39687,0.10554 0.39687,0.23454 0,0.129 0.53578,0.31489 1.19063,0.41309 0.65484,0.0982 1.19062,0.27914 1.19062,0.40209 0,0.12295 0.59531,0.30542 1.32292,0.40549 0.7276,0.10007 1.32291,0.27612 1.32291,0.39121 0,0.1151 0.67436,0.29353 1.49857,0.39651 1.97732,0.24705 2.2056,0.51956 2.2056,2.63296 0,1.5623 -0.0537,1.73869 -0.52917,1.73869 -0.29104,0 -0.52916,-0.11496 -0.52916,-0.25547 z"
       id="path1" /></g></svg>
